<svg width="104" height="104" viewBox="0 0 104 104" fill="none" xmlns="http://www.w3.org/2000/svg">
<g clip-path="url(#clip0)">
<path d="M54.0312 22.3437C52.9093 22.3437 52 21.4344 52 20.3125L52 12.1875C52 11.0655 52.9093 10.1562 54.0312 10.1562C55.1532 10.1562 56.0625 11.0655 56.0625 12.1875L56.0625 20.3125C56.0625 21.4344 55.1532 22.3437 54.0312 22.3437Z" fill="#45EF8A"/>
<path d="M76.375 60.9375C73.0147 60.9375 70.2812 58.204 70.2812 54.8437C70.2812 51.4835 73.0147 48.75 76.375 48.75C79.7353 48.75 82.4687 51.4835 82.4687 54.8437C82.4687 58.204 79.7353 60.9375 76.375 60.9375ZM76.375 52.8125C75.2546 52.8125 74.3437 53.7234 74.3437 54.8437C74.3437 55.9641 75.2546 56.875 76.375 56.875C77.4946 56.875 78.4062 55.9641 78.4062 54.8437C78.4062 53.7234 77.4946 52.8125 76.375 52.8125Z" fill="#45EF8A"/>
<path d="M66.2188 40.625L49.9688 40.625C48.8468 40.625 47.9375 39.7157 47.9375 38.5937C47.9375 37.4718 48.8468 36.5625 49.9688 36.5625L66.2188 36.5625C67.3407 36.5625 68.25 37.4718 68.25 38.5937C68.25 39.7157 67.3407 40.625 66.2188 40.625Z" fill="#45EF8A"/>
<path d="M41.8438 36.5625C40.7226 36.5625 39.8125 37.4726 39.8125 38.5937C39.8125 39.7149 40.7226 40.625 41.8438 40.625C42.9649 40.625 43.875 39.7149 43.875 38.5937C43.875 37.4726 42.9649 36.5625 41.8438 36.5625Z" fill="#45EF8A"/>
<path d="M97.65 74.3436L91.6006 74.3436C89.5004 78.9822 86.3726 83.1335 82.4687 86.4541L82.4687 97.6506C82.4687 101.151 79.6202 104 76.1187 104L72.568 104C69.0673 104 66.2187 101.151 66.2187 97.6506L66.2187 94.1157C64.2153 94.472 62.1753 94.6561 60.125 94.6561L47.9375 94.6561C45.8872 94.6561 43.8472 94.472 41.8437 94.1157L41.8437 97.6506C41.8437 101.151 38.9952 104 35.4937 104L31.943 104C28.4423 104 25.5938 101.151 25.5938 97.6506L25.5938 86.4494C18.9549 80.7397 14.36 71.4316 13.5356 61.9268C13.5015 61.5356 13.4761 61.1397 13.4562 60.743C10.2911 60.3478 6.52539 59.0498 4.18311 56.7099C-0.0706136 52.4522 -1.0299 46.241 1.13862 41.12C1.85511 39.426 2.87946 37.905 4.1839 36.6005C4.97657 35.8078 6.26276 35.8071 7.05622 36.6005C7.84968 37.394 7.84968 38.6802 7.05622 39.4736C6.12391 40.4059 5.39234 41.4922 4.88056 42.703C3.33332 46.3568 4.01648 50.7954 7.05542 53.8375C8.37732 55.1579 10.9695 56.252 13.5015 56.6503C14.5964 41.8786 25.7286 29.1809 40.6559 25.4667C38.8056 22.7761 37.7805 19.5626 37.7805 16.25C37.7805 7.28947 45.0707 -6.65114e-06 54.0305 -5.63989e-06C62.991 -4.62855e-06 70.2805 7.28947 70.2805 16.25C70.2805 19.4389 69.3235 22.55 67.5922 25.1851C70.4637 25.8151 73.2258 26.8069 75.8497 28.155C78.1809 23.5061 82.9266 20.4354 88.23 20.3172C88.8426 20.2982 89.4528 20.5378 89.8955 20.9694C90.339 21.4003 90.593 22.0009 90.593 22.6159L90.593 42.6403C92.3029 45.8387 93.4859 49.2522 94.1207 52.8124L97.65 52.8124C101.151 52.8124 104 55.6609 104 59.1624L104 67.9936C104 71.4951 101.151 74.3436 97.65 74.3436ZM54.0313 4.06249C47.3107 4.06249 41.8438 9.52939 41.8438 16.25C41.8438 22.9935 47.3123 28.4374 54.0313 28.4374C60.6614 28.4374 66.2188 23.0911 66.2188 16.25C66.2188 9.5294 60.751 4.06249 54.0313 4.06249ZM99.9375 59.1624C99.9375 57.9008 98.9116 56.8749 97.65 56.8749L92.5901 56.8749C91.4515 56.8749 90.4811 56.0219 90.3327 54.8921C89.836 51.1263 88.6545 47.5312 86.8209 44.2058C86.6312 43.8686 86.5312 43.4869 86.5312 43.0989L86.5313 24.5805C82.9924 25.3017 80.04 27.8773 78.8982 31.4018C78.6808 32.062 78.1865 32.5793 77.5406 32.8229C76.8971 33.0649 76.1862 33.0022 75.5911 32.6499C72.1371 30.6083 68.3841 29.296 64.4232 28.7398C61.5056 31.1693 57.8541 32.4999 54.0313 32.4999C50.3195 32.4999 46.7521 31.2383 43.8766 28.9334C28.8572 31.574 17.5711 44.2859 17.4743 58.8561C17.4688 59.771 17.5053 60.6851 17.583 61.5745C18.3423 70.3319 22.6453 78.8655 28.8255 83.8548C29.3532 84.2888 29.6563 84.9299 29.6563 85.6131L29.6563 97.6498C29.6563 98.9114 30.6822 99.9373 31.943 99.9373L35.4937 99.9373C36.7553 99.9373 37.7813 98.9114 37.7813 97.6498L37.7813 87.5388C37.7813 86.4168 38.6906 85.5075 39.8125 85.5075C40.9344 85.5075 41.8437 86.4168 41.8437 87.5388L41.8437 89.981C43.8393 90.3857 45.8824 90.5936 47.9375 90.5936L60.125 90.5936C62.1801 90.5936 64.2232 90.3857 66.2187 89.981L66.2187 87.5388C66.2187 86.4168 67.128 85.5075 68.25 85.5075C69.3719 85.5075 70.2812 86.4168 70.2812 87.5388L70.2812 97.6498C70.2812 98.9114 71.3072 99.9373 72.568 99.9373L76.1187 99.9373C77.3803 99.9373 78.4062 98.9114 78.4062 97.6498L78.4062 85.6131C78.4062 84.9148 78.7197 84.2658 79.2529 83.8437C83.244 80.6198 86.3797 76.4185 88.3284 71.6752C88.6855 70.8286 89.5091 70.2811 90.4271 70.2811L97.65 70.2811C98.9116 70.2811 99.9375 69.2552 99.9375 67.9936L99.9375 59.1624Z" fill="#45EF8A"/>
</g>
<defs>
<clipPath id="clip0">
<rect width="104" height="104" fill="white" transform="matrix(-1 -1.12867e-07 -6.77148e-08 1 104 0)"/>
</clipPath>
</defs>
</svg>
