<svg width="104" height="104" viewBox="0 0 104 104" fill="none" xmlns="http://www.w3.org/2000/svg">
<g clip-path="url(#clip0)">
<path d="M51.9793 59.1096C53.1027 59.1096 54.0146 58.1995 54.0146 57.0784C54.0146 55.9572 53.1027 55.0471 51.9793 55.0471C50.856 55.0471 49.9441 55.9572 49.9441 57.0784C49.9441 58.1995 50.856 59.1096 51.9793 59.1096Z" fill="#45EF8A"/>
<path d="M50.817 103.419C51.1708 103.671 51.585 103.797 52 103.797C52.415 103.797 52.8292 103.671 53.183 103.419C73.9192 88.6356 94.7398 82.1491 94.7398 51.7319V14.0743C94.7398 13.0182 93.928 12.1383 92.8739 12.0502L87.5839 11.609C75.456 10.6006 63.5245 6.62216 53.0788 0.105485C52.419 -0.30632 51.5811 -0.30632 50.9212 0.105485C40.4748 6.62216 28.5433 10.6006 16.4154 11.6098L11.1262 12.0502C10.0712 12.1383 9.26028 13.0182 9.26028 14.0743V51.7319C9.26028 83.0068 33.0048 90.72 50.817 103.419ZM13.3307 15.9429L16.754 15.6581C29.1093 14.6297 41.2666 10.6783 52 4.21163C62.7327 10.6783 74.8907 14.6297 87.2452 15.6581L90.6693 15.9429V51.7319C90.6693 79.1594 72.3578 85.0444 51.9968 99.2799C34.1274 86.9003 13.3307 79.8751 13.3307 51.7319V15.9429Z" fill="#45EF8A"/>
<path d="M50.8138 88.6539C51.5532 89.1578 52.4842 89.1213 53.1862 88.6008C71.6105 75.8729 82.5284 71.685 82.5284 51.7343V25.0923C82.5284 24.087 81.7914 23.2325 80.7953 23.0833C71.0548 21.6225 61.6808 18.5971 52.9333 14.091C52.3037 13.7665 51.554 13.8077 50.9768 14.1362C42.254 18.6185 32.9102 21.6289 23.2047 23.0833C22.2086 23.2325 21.4716 24.0862 21.4716 25.0923V51.7343C21.4716 71.8731 33.4294 76.8155 50.8138 88.6539ZM25.5421 26.8244C34.0065 25.3954 42.192 22.8254 49.9441 19.1715V48.9532C49.9441 50.0752 50.8552 50.9845 51.9793 50.9845C53.1035 50.9845 54.0146 50.0752 54.0146 48.9532V19.1525C61.7778 22.8151 69.9783 25.3922 78.4579 26.8244V51.7343C78.4579 68.2462 70.7082 71.8461 54.0146 83.114V65.2032C54.0146 64.0813 53.1035 63.172 51.9793 63.172C50.8552 63.172 49.9441 64.0813 49.9441 65.2032V83.1727C34.3468 72.8101 25.5421 68.3818 25.5421 51.7343V26.8244Z" fill="#45EF8A"/>
</g>
<defs>
<clipPath id="clip0">
<rect width="104" height="104" fill="white"/>
</clipPath>
</defs>
</svg>
