<svg width="104" height="104" viewBox="0 0 104 104" fill="none" xmlns="http://www.w3.org/2000/svg">
<g clip-path="url(#clip0)">
<path d="M27.2188 53.9897C27.2188 51.7458 29.0374 49.9272 31.2812 49.9272H49.9688V21.4897C49.9688 19.2458 51.7874 17.4272 54.0312 17.4272C56.2744 17.4272 58.0938 19.2458 58.0938 21.4897V53.9897C58.0938 56.2336 56.2744 58.0522 54.0312 58.0522H31.2812C29.0374 58.0522 27.2188 56.2336 27.2188 53.9897ZM102.302 66.1129C100.477 64.8061 97.9396 65.2266 96.6343 67.0508L76.6099 95.0209C76.0632 95.6557 75.3776 95.7922 75.0103 95.8168C74.6342 95.8422 73.9089 95.7938 73.2702 95.1947L60.3297 82.566C58.7238 80.999 56.1522 81.0307 54.5851 82.6367C53.018 84.2418 53.049 86.8142 54.6549 88.3813L67.6184 101.032C67.6303 101.044 67.6422 101.056 67.6549 101.067C69.5981 102.917 72.1927 103.947 74.8619 103.947C75.0912 103.947 75.3213 103.939 75.5506 103.924C78.4586 103.73 81.173 102.316 82.9988 100.044C83.0456 99.9856 83.0908 99.9253 83.1353 99.8642L103.241 71.7806C104.547 69.9564 104.126 67.4181 102.302 66.1129ZM51.0709 95.8239C27.3901 95.3328 8.125 75.655 8.125 51.9584C8.125 41.0159 12.2224 30.52 19.5 22.4886V30.8334C19.5 33.0773 21.3186 34.8959 23.5625 34.8959C25.8064 34.8959 27.625 33.0773 27.625 30.8334V21.4897C27.625 14.7699 22.1573 9.30218 15.4375 9.30218H6.09375C3.84985 9.30218 2.03125 11.1208 2.03125 13.3647C2.03125 15.6086 3.84985 17.4272 6.09375 17.4272H13.1285C4.72504 26.8923 0 39.1671 0 51.9584C0 65.6567 5.28125 78.5861 14.871 88.3654C24.4472 98.1297 37.2433 103.663 50.9026 103.947C50.9312 103.947 50.9598 103.947 50.9883 103.947C53.1926 103.947 55.0024 102.183 55.0485 99.9689C55.0945 97.7258 53.314 95.8699 51.0709 95.8239ZM53.8615 8.12231C77.4208 9.10461 95.875 28.3594 95.875 51.9584C95.875 52.5773 95.8615 53.2042 95.8361 53.8231C95.7425 56.0646 97.4833 57.9578 99.7249 58.0514C99.7828 58.0538 99.8399 58.0546 99.8978 58.0546C102.063 58.0546 103.863 56.3455 103.954 54.1619C103.984 53.4311 104 52.69 104 51.9584C104 38.4522 98.8457 25.6537 89.4877 15.9212C80.1558 6.21643 67.624 0.563839 54.2003 0.0044513C51.9595 -0.0923504 50.0656 1.65246 49.9719 3.89398C49.8791 6.13549 51.6199 8.02868 53.8615 8.12231Z" fill="#0CDE60"/>
</g>
<defs>
<clipPath id="clip0">
<rect width="104" height="104" fill="white"/>
</clipPath>
</defs>
</svg>
