<svg width="104" height="104" viewBox="0 0 104 104" fill="none" xmlns="http://www.w3.org/2000/svg">
<path d="M52 25.5938C50.8788 25.5938 49.9688 26.5038 49.9688 27.625C49.9688 28.7462 50.8788 29.6562 52 29.6562C53.1212 29.6562 54.0312 28.7462 54.0312 27.625C54.0312 26.5038 53.1212 25.5938 52 25.5938Z" fill="#45EF8A"/>
<path d="M18.2812 62.1562C19.4024 62.1562 20.3125 61.2462 20.3125 60.125C20.3125 59.0038 19.4024 58.0938 18.2812 58.0938C17.1601 58.0938 16.25 59.0038 16.25 60.125C16.25 61.2462 17.1601 62.1562 18.2812 62.1562Z" fill="#45EF8A"/>
<path d="M68.25 5.28125C49.9632 5.28125 34.9542 17.8893 33.7933 33.7703C16.3777 34.6439 0 47.202 0 64.1875C0 71.2858 2.80884 78.1635 7.92188 83.6129C8.93353 87.7833 7.70526 92.2037 4.65759 95.2513C4.07678 95.8322 3.90302 96.7057 4.21722 97.4651C4.53143 98.2236 5.27173 98.7188 6.09375 98.7188C11.8868 98.7188 17.4695 96.4471 21.6177 92.4441C25.6588 93.8215 30.9313 94.6562 35.75 94.6562C54.0344 94.6562 69.0419 82.0514 70.2059 66.1735C74.4588 65.9847 78.8823 65.1992 82.3823 64.0066C86.5305 68.0096 92.1132 70.2812 97.9062 70.2812C98.7283 70.2812 99.4686 69.7861 99.7828 69.0276C100.097 68.2682 99.9232 67.3947 99.3424 66.8138C96.2947 63.7662 95.0665 59.3458 96.0781 55.1754C101.191 49.726 104 42.8483 104 35.75C104 18.1011 86.3607 5.28125 68.25 5.28125ZM35.75 90.5938C30.9559 90.5938 25.493 89.6527 21.8336 88.1967C21.0496 87.8841 20.1538 88.0896 19.5833 88.7125C17.1307 91.3936 13.9418 93.2629 10.4673 94.1223C12.3819 90.4541 12.8707 86.1298 11.7059 82.0323C11.6138 81.7094 11.4432 81.4142 11.2092 81.1738C6.60077 76.4274 4.0625 70.3947 4.0625 64.1875C4.0625 49.8735 18.5732 37.7812 35.75 37.7812C51.9698 37.7812 66.2188 49.0602 66.2188 64.1875C66.2188 78.7482 52.5507 90.5938 35.75 90.5938ZM92.7908 52.7363C92.5568 52.9775 92.3862 53.2727 92.2941 53.5948C91.1293 57.6923 91.6181 62.0166 93.5327 65.6848C90.0582 64.8262 86.8693 62.9561 84.4167 60.275C83.8462 59.6529 82.9504 59.4466 82.1664 59.7592C78.995 61.0208 74.4707 61.8944 70.1995 62.1055C69.606 54.424 65.7744 47.2043 59.2236 41.8438H85.7188C86.8407 41.8438 87.75 40.9344 87.75 39.8125C87.75 38.6906 86.8407 37.7812 85.7188 37.7812H52.9831C48.3723 35.4342 43.195 34.0655 37.8661 33.7783C39.0333 20.1356 52.215 9.34375 68.25 9.34375C85.4268 9.34375 99.9375 21.436 99.9375 35.75C99.9375 41.9572 97.3992 47.9899 92.7908 52.7363Z" fill="#45EF8A"/>
<path d="M52 58.0938H26.4062C25.2843 58.0938 24.375 59.0031 24.375 60.125C24.375 61.2469 25.2843 62.1562 26.4062 62.1562H52C53.1219 62.1562 54.0312 61.2469 54.0312 60.125C54.0312 59.0031 53.1219 58.0938 52 58.0938Z" fill="#45EF8A"/>
<path d="M52 70.2812H18.2812C17.1593 70.2812 16.25 71.1906 16.25 72.3125C16.25 73.4344 17.1593 74.3438 18.2812 74.3438H52C53.1219 74.3438 54.0312 73.4344 54.0312 72.3125C54.0312 71.1906 53.1219 70.2812 52 70.2812Z" fill="#45EF8A"/>
<path d="M85.7188 25.5938H60.125C59.0031 25.5938 58.0938 26.5031 58.0938 27.625C58.0938 28.7469 59.0031 29.6562 60.125 29.6562H85.7188C86.8407 29.6562 87.75 28.7469 87.75 27.625C87.75 26.5031 86.8407 25.5938 85.7188 25.5938Z" fill="#45EF8A"/>
</svg>
