<svg width="104" height="104" viewBox="0 0 104 104" fill="none" xmlns="http://www.w3.org/2000/svg">
<g clip-path="url(#clip0)">
<path d="M96.1772 28.2176L96.174 28.1367C96.1288 27.1377 96.0987 26.0808 96.0804 24.9049C95.9955 19.1706 91.4371 14.4273 85.702 14.1068C73.7447 13.4395 64.4946 9.54045 56.591 1.8368L56.5235 1.77253C53.9456 -0.59117 50.0569 -0.59117 47.4781 1.77253L47.4107 1.8368C39.5071 9.54045 30.257 13.4395 18.2996 14.1076C12.5653 14.4273 8.00613 19.1706 7.92123 24.9057C7.90377 26.0737 7.87283 27.1306 7.8276 28.1367L7.82284 28.3247C7.59036 40.5177 7.30154 55.6925 12.3781 69.4661C15.1694 77.0404 19.397 83.6245 24.9424 89.0367C31.2583 95.2002 39.5309 100.093 49.53 103.58C49.8553 103.693 50.1933 103.785 50.5377 103.854C51.0233 103.951 51.5121 104 52.0008 104C52.4896 104 52.9791 103.951 53.464 103.854C53.8083 103.785 54.1487 103.693 54.4756 103.578C64.4628 100.086 72.7267 95.1899 79.037 89.0272C84.5801 83.6134 88.8076 77.0277 91.6014 69.4518C96.6969 55.637 96.4089 40.4336 96.1772 28.2176ZM85.8758 67.3405C80.5216 81.8575 69.5917 91.8273 52.4618 97.8178C52.4007 97.8385 52.3357 97.8567 52.2682 97.8702C52.0913 97.9051 51.9112 97.9051 51.7318 97.8694C51.6652 97.8559 51.6001 97.8385 51.5398 97.8178C34.3917 91.8384 23.4547 81.8742 18.1044 67.3563C13.4254 54.6603 13.6904 40.7304 13.9245 28.4413L13.9261 28.3731C13.9737 27.317 14.0054 26.2109 14.0229 24.9954C14.061 22.4492 16.0891 20.3425 18.64 20.2005C25.4066 19.8228 31.3512 18.5152 36.8133 16.2031C42.2683 13.8941 47.1131 10.6394 51.6231 6.25317C51.8524 6.05957 52.15 6.05877 52.3785 6.25317C56.8893 10.6394 61.7341 13.8941 67.1883 16.2031C72.6505 18.5152 78.595 19.8228 85.3624 20.2005C87.9134 20.3425 89.9415 22.4492 89.9787 24.9962C89.997 26.2181 90.0287 27.3242 90.0763 28.3731C90.3096 40.6764 90.5683 54.6174 85.8758 67.3405Z" fill="#0CDE60"/>
<path d="M51.9993 26.0833C37.7076 26.0833 26.0811 37.7106 26.0811 52.0015C26.0811 66.2933 37.7076 77.9206 51.9993 77.9206C66.2903 77.9206 77.9176 66.2933 77.9176 52.0015C77.9176 37.7106 66.2903 26.0833 51.9993 26.0833ZM51.9993 71.8173C41.0726 71.8173 32.1835 62.9282 32.1835 52.0015C32.1835 41.0748 41.0726 32.1857 51.9993 32.1857C62.9252 32.1857 71.8143 41.0748 71.8143 52.0015C71.8143 62.9282 62.9252 71.8173 51.9993 71.8173Z" fill="#0CDE60"/>
<path d="M59.4483 43.9551L47.41 55.9934L44.1426 52.726C42.9508 51.5342 41.0187 51.5342 39.8269 52.726C38.636 53.9177 38.636 55.8498 39.8269 57.0408L45.2526 62.4664C45.8485 63.0623 46.6293 63.3599 47.41 63.3599C48.1908 63.3599 48.9715 63.0623 49.5674 62.4664L63.764 48.2699C64.9549 47.0781 64.9549 45.1461 63.764 43.9551C62.5722 42.7625 60.6401 42.7625 59.4483 43.9551Z" fill="#0CDE60"/>
</g>
<defs>
<clipPath id="clip0">
<rect width="104" height="104" fill="white"/>
</clipPath>
</defs>
</svg>
