<svg width="104" height="104" viewBox="0 0 104 104" fill="none" xmlns="http://www.w3.org/2000/svg">
<g clip-path="url(#clip0)">
<path d="M42.6562 63.375C41.5351 63.375 40.625 64.2851 40.625 65.4062C40.625 66.5274 41.5351 67.4375 42.6562 67.4375C43.7774 67.4375 44.6875 66.5274 44.6875 65.4062C44.6875 64.2851 43.7774 63.375 42.6562 63.375Z" fill="#45EF8A"/>
<path d="M42.6562 75.5625C41.5351 75.5625 40.625 76.4726 40.625 77.5938C40.625 78.7149 41.5351 79.625 42.6562 79.625C43.7774 79.625 44.6875 78.7149 44.6875 77.5938C44.6875 76.4726 43.7774 75.5625 42.6562 75.5625Z" fill="#45EF8A"/>
<path d="M77.5938 63.375H50.7812C49.6593 63.375 48.75 64.2843 48.75 65.4062C48.75 66.5282 49.6593 67.4375 50.7812 67.4375H77.5938C78.7157 67.4375 79.625 66.5282 79.625 65.4062C79.625 64.2843 78.7157 63.375 77.5938 63.375Z" fill="#45EF8A"/>
<path d="M77.5938 75.5625H50.7812C49.6593 75.5625 48.75 76.4718 48.75 77.5938C48.75 78.7157 49.6593 79.625 50.7812 79.625H77.5938C78.7157 79.625 79.625 78.7157 79.625 77.5938C79.625 76.4718 78.7157 75.5625 77.5938 75.5625Z" fill="#45EF8A"/>
<path d="M6.09375 98.5831V101.969C6.09375 103.091 7.00305 104 8.125 104C9.24695 104 10.1562 103.091 10.1562 101.969V98.5831L10.9688 97.5C14.3743 92.9598 16.25 87.3326 16.25 81.6562V24.375H18.2812C19.4016 24.375 20.3125 25.2859 20.3125 26.4062V45.0938C20.3125 46.2157 21.2218 47.125 22.3438 47.125C23.4657 47.125 24.375 46.2157 24.375 45.0938V26.4062C24.375 23.046 21.6415 20.3125 18.2812 20.3125H16.25V16.25C16.25 14.2521 15.5319 12.3652 14.2188 10.8799V6.09375C14.2188 2.73346 11.4853 0 8.125 0C4.76471 0 2.03125 2.73346 2.03125 6.09375V10.8815C0.731567 12.3549 0 14.2632 0 16.25V81.6562C0 87.3334 1.87573 92.9598 5.28125 97.5L6.09375 98.5831ZM12.1875 79.625H4.0625V24.375H12.1875V79.625ZM4.0625 20.3125V16.25C4.0625 14.0196 5.87952 12.1875 8.125 12.1875C10.3324 12.1875 12.1875 13.9775 12.1875 16.25V20.3125H4.0625ZM8.125 4.0625C9.24536 4.0625 10.1562 4.97339 10.1562 6.09375V8.38525C9.49847 8.21466 8.8161 8.125 8.125 8.125C7.4339 8.125 6.75153 8.21466 6.09375 8.38446V6.09375C6.09375 4.97339 7.00464 4.0625 8.125 4.0625ZM12.0931 83.6875C11.7344 87.558 10.3602 91.3182 8.125 94.5023C5.88983 91.3182 4.51556 87.558 4.15692 83.6875H12.0931Z" fill="#45EF8A"/>
<path d="M104 32.9062V22.75C104 18.2701 100.355 14.625 95.875 14.625C95.4156 14.625 38.5938 14.625 38.5938 14.625C32.9935 14.625 28.4375 19.181 28.4375 24.7812V87.75H22.3438C21.2218 87.75 20.3125 88.6593 20.3125 89.7812C20.3125 97.6214 26.6911 104 34.5312 104H81.6562C87.6016 104 91.8125 98.937 91.8125 93.4089V34.9375H101.969C103.091 34.9375 104 34.0282 104 32.9062ZM34.5312 99.9375C29.6269 99.9375 25.5223 96.4423 24.5789 91.8125H71.5V93.8438C71.5 96.1281 72.2585 98.2387 73.536 99.9375H34.5312ZM87.75 22.75V93.4089C87.75 96.7732 85.3117 99.9375 81.6562 99.9375C78.296 99.9375 75.5625 97.204 75.5625 93.8438V89.7812C75.5625 88.6593 74.6532 87.75 73.5312 87.75H32.5V24.7812C32.5 21.421 35.2335 18.6669 38.5938 18.6669H88.8362C88.1404 19.8737 87.75 21.2861 87.75 22.75ZM99.9375 30.875H91.8125V22.75C91.8125 20.4775 93.6581 18.6875 95.875 18.6875C98.1149 18.6875 99.9375 20.5101 99.9375 22.75V30.875Z" fill="#45EF8A"/>
<path d="M55.1215 51.6644C56.2791 52.6419 57.4772 53.6528 58.7484 54.7541C59.13 55.085 59.6037 55.25 60.0782 55.25C60.5527 55.25 61.0272 55.085 61.4088 54.7541C62.6791 53.6528 63.8765 52.6419 65.0349 51.6652C71.5008 46.2086 76.1719 42.2659 76.1719 36.4768C76.1719 31.0575 72.1911 26.8125 67.109 26.8125C63.6916 26.8125 61.4628 28.6446 60.0782 30.5084C58.6936 28.6446 56.464 26.8125 53.0458 26.8125C47.9645 26.8125 43.9845 31.0575 43.9845 36.4768C43.9845 42.2659 48.6564 46.2078 55.1215 51.6644ZM53.0458 30.875C56.7544 30.875 58.0692 35.3001 58.1231 35.489C58.3691 36.3602 59.1633 36.9592 60.0695 36.964H60.0798C60.9851 36.964 61.7825 36.3594 62.0333 35.489C62.0872 35.3001 63.402 30.875 67.1082 30.875C69.9591 30.875 72.1094 33.2831 72.1094 36.4768C72.1094 40.3782 68.4603 43.4576 62.4141 48.5604C61.6564 49.1999 60.8812 49.8537 60.0782 50.54C59.2744 49.8537 58.4992 49.1999 57.7415 48.5596C51.6961 43.4576 48.047 40.3782 48.047 36.4768C48.047 33.2831 50.1965 30.875 53.0458 30.875Z" fill="#45EF8A"/>
</g>
<defs>
<clipPath id="clip0">
<rect width="104" height="104" fill="white"/>
</clipPath>
</defs>
</svg>
