<svg width="70" height="70" viewBox="0 0 70 70" fill="none" xmlns="http://www.w3.org/2000/svg">
<path d="M35 0C15.6702 0 0 15.6702 0 35C0 54.3298 15.6702 70 35 70C54.3298 70 70 54.3298 70 35C70 15.6702 54.3298 0 35 0ZM35 67.8125C16.8787 67.8125 2.1875 53.1212 2.1875 35.0011C2.1875 16.8787 16.8787 2.1875 35 2.1875C53.1213 2.1875 67.8125 16.8787 67.8125 35.0011C67.8125 53.1212 53.1213 67.8125 35 67.8125Z" fill="#30A760"/>
<path d="M50.3125 22.9688H19.6875C18.48 22.9688 17.5 23.9488 17.5 25.1562V44.8438C17.5 46.0512 18.48 47.0312 19.6875 47.0312H50.3125C51.52 47.0312 52.5 46.0512 52.5 44.8438V25.1562C52.5 23.9488 51.52 22.9688 50.3125 22.9688ZM48.3492 25.1562L35 38.2812L21.7558 25.1562H48.3492ZM19.6875 44.8438V26.2566L30.1755 36.7445L21.9417 44.8438H19.6875ZM25.1398 44.8438L31.7909 38.3611L33.5191 40.0881C34.3733 40.9423 35.758 40.9423 36.6133 40.0881L38.2878 38.4136L44.9389 44.8438H25.1398ZM50.3125 44.8438H48.1917L39.9591 36.7445L50.3125 26.39V44.8438Z" fill="#30A760"/>
</svg>
