<svg width="70" height="70" viewBox="0 0 70 70" fill="none" xmlns="http://www.w3.org/2000/svg">
<path d="M35 4.375C51.8848 4.375 65.625 18.1152 65.625 35C65.625 51.8848 51.8848 65.625 35 65.625C18.1152 65.625 4.375 51.8848 4.375 35C4.375 18.1152 18.1152 4.375 35 4.375ZM35 0C15.6714 0 0 15.6714 0 35C0 54.3286 15.6714 70 35 70C54.3286 70 70 54.3286 70 35C70 15.6714 54.3286 0 35 0ZM54.5124 46.7023L54.3158 46.1042C53.8543 44.7285 52.3333 43.2929 50.932 42.9084L45.7581 41.4941C44.3568 41.1139 42.3572 41.6266 41.3278 42.6562L39.4563 44.5277C32.6546 42.6862 27.3183 37.3499 25.4811 30.5482L27.3525 28.6768C28.3779 27.6514 28.8906 25.6519 28.5104 24.2462L27.1003 19.0723C26.72 17.6709 25.2759 16.1499 23.9002 15.6885L23.3105 15.4919C21.9305 15.0304 19.9609 15.4961 18.9355 16.5259L16.1328 19.3286C15.633 19.8242 15.3125 21.2469 15.3125 21.2513C15.2184 30.1466 18.7049 38.7129 24.994 45.0062C31.2659 51.2781 39.8024 54.7604 48.6676 54.6833C48.7147 54.6833 50.1802 54.3714 50.68 53.8714L53.4827 51.0687C54.5081 50.0475 54.9694 48.078 54.5124 46.7023Z" fill="#30A760"/>
</svg>
