<svg width="70" height="70" viewBox="0 0 70 70" fill="none" xmlns="http://www.w3.org/2000/svg">
<path d="M35 0C21.4304 0 10.3906 11.0398 10.3906 24.6094C10.3906 29.1941 11.6606 33.6684 14.0641 37.5501L33.5992 69.0305C33.9734 69.6336 34.6326 70 35.3417 70C35.3471 70 35.3525 70 35.3579 70C36.0731 69.9944 36.7337 69.6166 37.1011 69.0031L56.1382 37.2176C58.4091 33.4179 59.6094 29.0581 59.6094 24.6094C59.6094 11.0398 48.5696 0 35 0ZM52.6184 35.1118L35.3106 64.0098L17.5502 35.3891C15.5496 32.1582 14.4648 28.4307 14.4648 24.6094C14.4648 13.3014 23.692 4.07422 35 4.07422C46.308 4.07422 55.5215 13.3014 55.5215 24.6094C55.5215 28.3173 54.5083 31.9495 52.6184 35.1118Z" fill="#45EF8A"/>
<path d="M35 12.3047C28.2152 12.3047 22.6953 17.8246 22.6953 24.6094C22.6953 31.3508 28.1254 36.9141 35 36.9141C41.9594 36.9141 47.3047 31.2767 47.3047 24.6094C47.3047 17.8246 41.7848 12.3047 35 12.3047ZM35 32.8398C30.4531 32.8398 26.7695 29.1439 26.7695 24.6094C26.7695 20.0862 30.4768 16.3789 35 16.3789C39.5232 16.3789 43.2168 20.0862 43.2168 24.6094C43.2168 29.0778 39.6189 32.8398 35 32.8398Z" fill="#45EF8A"/>
</svg>
