<svg width="52" height="52" viewBox="0 0 52 52" fill="none" xmlns="http://www.w3.org/2000/svg">
<g clip-path="url(#clip0)">
<path d="M52.0001 10.0134C50.1029 10.8541 48.0673 11.4242 45.9285 11.6787C48.1123 10.3709 49.784 8.29666 50.5763 5.83258C48.5278 7.04365 46.2666 7.92304 43.8573 8.39975C41.928 6.34155 39.1837 5.05957 36.1398 5.05957C30.3002 5.05957 25.5653 9.79442 25.5653 15.6308C25.5653 16.4586 25.6587 17.2671 25.8391 18.0402C17.0523 17.5988 9.26079 13.389 4.04602 6.9921C3.13446 8.5511 2.61589 10.3677 2.61589 12.3068C2.61589 15.9755 4.48407 19.2126 7.31857 21.1065C5.58565 21.0485 3.95581 20.5718 2.52897 19.7794V19.9115C2.52897 25.0328 6.17513 29.3071 11.0098 30.2799C10.124 30.5182 9.18995 30.6503 8.22364 30.6503C7.54084 30.6503 6.88052 30.5826 6.23308 30.4538C7.57941 34.6572 11.4833 37.7139 16.1087 37.7977C12.4915 40.6322 7.93054 42.3167 2.9767 42.3167C2.12317 42.3167 1.28244 42.2652 0.454681 42.1718C5.13479 45.177 10.691 46.9292 16.6627 46.9292C36.1142 46.9292 46.7467 30.8178 46.7467 16.8452L46.7113 15.4763C48.7888 13.9945 50.586 12.1328 52.0001 10.0134Z" fill="#30A760"/>
</g>
<defs>
<clipPath id="clip0">
<rect width="51.5454" height="51.5454" fill="white" transform="translate(0.45459 0.22168)"/>
</clipPath>
</defs>
</svg>
