<svg width="52" height="52" viewBox="0 0 52 52" fill="none" xmlns="http://www.w3.org/2000/svg">
<g clip-path="url(#clip0)">
<path d="M51.2722 37.6279C51.2098 37.4934 51.1516 37.3818 51.0975 37.2924C50.2032 35.6818 48.4942 33.7048 45.9716 31.3609L45.9183 31.3072L45.8916 31.2809L45.8646 31.2539H45.8375C44.6926 30.1625 43.9676 29.4286 43.664 29.0529C43.1084 28.3372 42.984 27.6127 43.2876 26.8787C43.5021 26.3241 44.3079 25.1529 45.703 23.3634C46.4369 22.415 47.0181 21.6549 47.4473 21.0823C50.5428 16.967 51.8848 14.3373 51.4731 13.1921L51.3132 12.9244C51.2057 12.7633 50.9284 12.6159 50.4817 12.4815C50.0338 12.3474 49.4615 12.3252 48.7635 12.4146L41.0345 12.468C40.9093 12.4236 40.7305 12.4277 40.4976 12.4815C40.2649 12.5353 40.1486 12.5623 40.1486 12.5623L40.014 12.6295L39.9073 12.7102C39.8178 12.7636 39.7194 12.8575 39.6119 12.9917C39.505 13.1255 39.4156 13.2825 39.3442 13.4614C38.5027 15.6263 37.546 17.6391 36.4722 19.4997C35.8102 20.6092 35.2022 21.5707 34.6469 22.3848C34.0924 23.1987 33.6272 23.7983 33.2518 24.1827C32.8758 24.5674 32.5365 24.8756 32.2317 25.1085C31.9274 25.3414 31.6952 25.4398 31.5343 25.4038C31.3731 25.3678 31.2213 25.3321 31.0776 25.2964C30.8273 25.1353 30.6259 24.9162 30.4741 24.6389C30.3216 24.3616 30.219 24.0125 30.1653 23.5921C30.1119 23.1713 30.0804 22.8094 30.0713 22.5052C30.063 22.2013 30.0668 21.7714 30.085 21.2168C30.1036 20.6619 30.1119 20.2865 30.1119 20.0897C30.1119 19.4097 30.1252 18.6717 30.1518 17.8755C30.1789 17.0793 30.2008 16.4485 30.2191 15.9838C30.2373 15.5185 30.2458 15.0264 30.2458 14.5075C30.2458 13.9886 30.2142 13.5817 30.1518 13.2863C30.0901 12.9914 29.9955 12.705 29.8707 12.4275C29.7452 12.1502 29.5616 11.9357 29.3206 11.7834C29.0791 11.6313 28.7788 11.5106 28.4215 11.4209C27.4732 11.2063 26.2656 11.0902 24.7981 11.0722C21.4705 11.0365 19.3322 11.2513 18.384 11.7165C18.0083 11.9131 17.6683 12.1817 17.3643 12.5214C17.0421 12.9151 16.9972 13.13 17.2298 13.1654C18.3034 13.3262 19.0635 13.7109 19.5108 14.3192L19.6721 14.6415C19.7975 14.8741 19.9227 15.2858 20.048 15.8761C20.1731 16.4664 20.2538 17.1195 20.2894 17.8348C20.3787 19.1411 20.3787 20.2593 20.2894 21.1895C20.1998 22.1201 20.1152 22.8446 20.0344 23.3635C19.9537 23.8824 19.833 24.3028 19.6721 24.6248C19.5108 24.9468 19.4036 25.1436 19.3498 25.2151C19.2962 25.2865 19.2514 25.3315 19.2159 25.3492C18.9833 25.4383 18.7415 25.4837 18.4911 25.4837C18.2404 25.4837 17.9364 25.3583 17.5787 25.1077C17.221 24.8571 16.8498 24.5129 16.4651 24.0745C16.0803 23.636 15.6464 23.0232 15.1632 22.236C14.6803 21.4489 14.1793 20.5186 13.6604 19.4451L13.2311 18.6666C12.9627 18.1658 12.5961 17.4365 12.1309 16.4795C11.6654 15.5221 11.254 14.596 10.8963 13.7014C10.7534 13.3257 10.5386 13.0397 10.2524 12.8428L10.118 12.7621C10.0287 12.6907 9.88538 12.6148 9.68873 12.534C9.4918 12.4532 9.28632 12.3953 9.07143 12.3597L1.71794 12.4131C0.966504 12.4131 0.45665 12.5833 0.188187 12.9233L0.0807457 13.0841C0.0270719 13.1737 0 13.3168 0 13.5137C0 13.7106 0.0536738 13.9521 0.161115 14.2382C1.23459 16.7611 2.40197 19.1943 3.66326 21.5381C4.92455 23.8819 6.02058 25.7699 6.95071 27.2004C7.88102 28.6319 8.82929 29.9829 9.79551 31.2529C10.7617 32.5233 11.4013 33.3374 11.7142 33.6951C12.0275 34.0534 12.2736 34.3213 12.4525 34.5002L13.1236 35.1442C13.553 35.5737 14.1835 36.088 15.0155 36.6873C15.8477 37.2869 16.769 37.8772 17.7798 38.4592C18.7909 39.0402 19.9671 39.5143 21.3092 39.881C22.651 40.2481 23.957 40.3954 25.2274 40.3243H28.3138C28.9398 40.2703 29.414 40.0734 29.7363 39.7337L29.8431 39.5992C29.9149 39.4924 29.9821 39.3265 30.0442 39.1032C30.107 38.8796 30.1382 38.6332 30.1382 38.3653C30.1198 37.5961 30.1784 36.9028 30.3122 36.2856C30.446 35.6686 30.5985 35.2034 30.769 34.8901C30.9394 34.5771 31.1317 34.3129 31.3458 34.0988C31.5603 33.8842 31.7131 33.7542 31.8028 33.7095C31.8919 33.6644 31.9631 33.6339 32.0167 33.6155C32.4461 33.4725 32.9515 33.611 33.5335 34.0319C34.1151 34.4523 34.6606 34.9715 35.1708 35.5885C35.6808 36.2061 36.2934 36.899 37.009 37.6682C37.725 38.4376 38.351 39.0096 38.8876 39.3859L39.4241 39.7079C39.7824 39.9228 40.2476 40.1197 40.8203 40.2985C41.3919 40.4773 41.8927 40.5221 42.3228 40.4327L49.1929 40.3255C49.8724 40.3255 50.4012 40.213 50.7762 39.9898C51.1521 39.7661 51.3753 39.5198 51.4473 39.2518C51.5191 38.9835 51.523 38.6791 51.4609 38.3388C51.3973 37.9994 51.3346 37.7621 51.2722 37.6279Z" fill="#30A760"/>
</g>
<defs>
<clipPath id="clip0">
<rect width="51.5454" height="51.5454" fill="white"/>
</clipPath>
</defs>
</svg>
