<svg width="104" height="104" viewBox="0 0 104 104" fill="none" xmlns="http://www.w3.org/2000/svg">
<rect width="104" height="104" rx="52" fill="white"/>
<g filter="url(#filter0_d)">
<path d="M24.0769 38.9674H33.3469L39.9169 52.3324L46.3969 38.9674H55.6669V67.9474H45.9919V55.6174L42.3919 62.9974H37.3519L33.7519 55.6174V67.9474H24.0769V38.9674ZM69.0421 68.3974C67.0321 68.3974 65.1121 68.2324 63.2821 67.9024C61.4821 67.5724 59.9521 67.1074 58.6921 66.5074V58.9474C60.1021 59.6074 61.6621 60.1474 63.3721 60.5674C65.0821 60.9874 66.6271 61.1974 68.0071 61.1974C69.2671 61.1974 70.1971 61.0774 70.7971 60.8374C71.4271 60.5674 71.7421 60.1174 71.7421 59.4874C71.7421 58.9174 71.4571 58.4824 70.8871 58.1824C70.3171 57.8524 69.2521 57.4324 67.6921 56.9224C67.2421 56.8024 66.6721 56.6224 65.9821 56.3824C64.0321 55.7224 62.5171 55.0174 61.4371 54.2674C60.3571 53.4874 59.5771 52.5574 59.0971 51.4774C58.6171 50.3974 58.3771 49.0474 58.3771 47.4274C58.3771 41.4874 62.5021 38.5174 70.7521 38.5174C72.2221 38.5174 73.8421 38.6524 75.6121 38.9224C77.3821 39.1924 78.8671 39.5074 80.0671 39.8674V47.4724C77.2771 46.3624 74.7121 45.8074 72.3721 45.8074C71.0821 45.8074 70.0621 45.9124 69.3121 46.1224C68.5921 46.3324 68.2321 46.7374 68.2321 47.3374C68.2321 47.7274 68.3821 48.0424 68.6821 48.2824C69.0121 48.5224 69.4621 48.7324 70.0321 48.9124C70.6321 49.0924 71.6671 49.3774 73.1371 49.7674C75.4471 50.3974 77.2171 51.1624 78.4471 52.0624C79.6771 52.9624 80.5171 53.9974 80.9671 55.1674C81.4171 56.3374 81.6421 57.7624 81.6421 59.4424C81.6421 62.2024 80.5621 64.3924 78.4021 66.0124C76.2721 67.6024 73.1521 68.3974 69.0421 68.3974Z" fill="black"/>
</g>
<defs>
<filter id="filter0_d" x="24.0769" y="38.5174" width="57.5652" height="30.88" filterUnits="userSpaceOnUse" color-interpolation-filters="sRGB">
<feFlood flood-opacity="0" result="BackgroundImageFix"/>
<feColorMatrix in="SourceAlpha" type="matrix" values="0 0 0 0 0 0 0 0 0 0 0 0 0 0 0 0 0 0 127 0"/>
<feOffset dy="1"/>
<feColorMatrix type="matrix" values="0 0 0 0 0 0 0 0 0 0 0 0 0 0 0 0 0 0 0.25 0"/>
<feBlend mode="normal" in2="BackgroundImageFix" result="effect1_dropShadow"/>
<feBlend mode="normal" in="SourceGraphic" in2="effect1_dropShadow" result="shape"/>
</filter>
</defs>
</svg>
